<svg id="full" xmlns="http://www.w3.org/2000/svg" width="999.99986mm" height="1000mm" viewBox="0 0 2834.64526 2834.64567"><defs><style>.cls-1{fill:#060606;}</style></defs><g id="LINE"><line class="cls-1" x1="2125.98389" y1="708.66137" x2="2834.64526" y2="708.66137"/></g><path class="cls-1" d="M2007.87347,708.66112h-826.771l-985.411,985.4105c-260.92171,260.92222-260.92171,683.95991,0,944.88213a668.13318,668.13318,0,0,0,472.44107,195.69192h472.44055a668.13348,668.13348,0,0,0,472.44158-195.69192L2834.64546,1417.322V1181.10168ZM1278.94794,2304.887a195.68719,195.68719,0,0,1-138.37483,57.31811H668.13256A195.68721,195.68721,0,0,1,529.75773,2304.887c-76.42262-76.42211-76.42262-200.32652,0-276.74864l847.03668-847.03668h505.6152l331.1157,189.209Z" transform="translate(-0.00021 0)"/><g id="LWPOLYLINE"><polygon class="cls-1" points="118.11 0 118.11 472.441 2125.984 472.441 2125.984 708.661 2834.645 708.661 2834.645 472.441 2007.874 0 118.11 0"/></g></svg>