<?xml version="1.0" encoding="UTF-8"?><svg id="a" xmlns="http://www.w3.org/2000/svg" width="1000" height="1000" viewBox="0 0 1000 1000"><path d="m708.333251953125,250h-291.66650390625L69.03564453125,597.63104248046875c-92.0474853515625,92.0474853515625-92.0474853515625,241.285888671875,0,333.3333740234375,44.20263671875,44.20269775390625,104.154541015625,69.03558349609375,166.6666259765625,69.03558349609375h166.6666259765625c62.51220703125,0,122.4638671875-24.8328857421875,166.666748046875-69.03558349609375l430.96435546875-430.96441650390625v-83.3333740234375l-291.666748046875-166.6666259765625Zm-257.1488037109375,563.11328125c-12.9466552734375,12.9466552734375-30.5062255859375,20.22003173828125-48.8155517578125,20.22003173828125h-166.6666259765625c-18.3094482421875,0-35.8687744140625-7.27337646484375-48.8155517578125-20.22003173828125-26.9600830078125-26.9600830078125-26.9600830078125-70.6710205078125,0-97.631103515625l298.8155517578125-298.8155517578125h178.3702392578125l116.81005859375,66.74853515625-329.6981201171875,329.6981201171875ZM41.666666666669698.000000000003638v166.666666666667879h708.333333333332121v83.333333333332121h250v-83.333333333332121L708.333333333337578.000000000003638H41.666666666669698Z"/></svg>