<?xml version="1.0" encoding="UTF-8"?><svg id="a" xmlns="http://www.w3.org/2000/svg" width="1000" height="1000" viewBox="0 0 1000 1000"><defs><style>.b{stroke-width:0px;}</style></defs><path class="b" d="m708.333251953130457,250h-291.66650390625L69.03564453125,597.63104248046875c-92.047485351560681,92.0474853515625-92.047485351560681,241.285888671875,0,333.3333740234375,44.20263671875,44.20269775390625,104.154541015630457,69.03558349609375,166.666625976560681,69.03558349609375h166.666625976569776c62.51220703125,0,122.4638671875-24.8328857421875,166.666748046869543-69.03558349609375l430.96435546875-430.96441650390625v-83.333374023436591l-291.666748046869543-166.666625976563409Zm-257.148803710941138,563.11328125c-12.946655273439319,12.9466552734375-30.506225585939319,20.22003173828125-48.815551757808862,20.22003173828125h-166.666625976569776c-18.309448242180224,0-35.868774414060681-7.27337646484375-48.815551757810681-20.22003173828125-26.960083007810681-26.9600830078125-26.960083007810681-70.6710205078125,0-97.631103515625l298.815551757810681-298.815551757811591h178.370239257819776l116.81005859375,66.74853515625-329.698120117191138,329.698120117186591ZM41.666666666669698.000000000003638v166.666666666668789h708.333333333330302v83.333333333331211h250v-83.333333333331211L708.333333333339397.000000000003638H41.666666666669698Z"/></svg>